<svg width="40" height="40" viewBox="0 0 40 40" fill="none" xmlns="http://www.w3.org/2000/svg">
<g id="Medical card">
<rect width="40" height="40" rx="12" fill="#FFDFC8"/>
<path id="Vector" d="M22.6744 4.70435H12.75C11.7554 4.70435 10.8016 5.09943 10.0983 5.8027C9.39509 6.50596 9 7.45978 9 8.45435V30.9543C9 31.9489 9.39509 32.9027 10.0983 33.606C10.8016 34.3093 11.7554 34.7043 12.75 34.7043H27.75C28.7446 34.7043 29.6984 34.3093 30.4016 33.606C31.1049 32.9027 31.5 31.9489 31.5 30.9543V13.53C31.4999 13.0327 31.3023 12.5559 30.9506 12.2043L24 5.25372C23.6485 4.90207 23.1716 4.70445 22.6744 4.70435V4.70435ZM23.0625 11.2668V7.51685L28.6875 13.1418H24.9375C24.4402 13.1418 23.9633 12.9443 23.6117 12.5927C23.26 12.241 23.0625 11.7641 23.0625 11.2668ZM17.4375 15.0168V16.2056L18.4669 15.6112C18.5735 15.5487 18.6915 15.5079 18.814 15.4911C18.9365 15.4744 19.0611 15.482 19.1806 15.5136C19.3002 15.5452 19.4123 15.6002 19.5105 15.6753C19.6087 15.7504 19.6911 15.8442 19.7529 15.9512C19.8147 16.0583 19.8548 16.1765 19.8707 16.2991C19.8866 16.4218 19.8782 16.5463 19.8458 16.6656C19.8134 16.7849 19.7577 16.8967 19.6819 16.9944C19.6062 17.0921 19.5119 17.1739 19.4044 17.235L18.375 17.8293L19.4044 18.4237C19.5119 18.4848 19.6062 18.5666 19.6819 18.6643C19.7577 18.762 19.8134 18.8738 19.8458 18.9931C19.8782 19.1124 19.8866 19.2369 19.8707 19.3595C19.8548 19.4821 19.8147 19.6004 19.7529 19.7075C19.6911 19.8145 19.6087 19.9083 19.5105 19.9834C19.4123 20.0585 19.3002 20.1135 19.1806 20.1451C19.0611 20.1767 18.9365 20.1843 18.814 20.1676C18.6915 20.1508 18.5735 20.11 18.4669 20.0475L17.4375 19.4531V20.6418C17.4375 20.8905 17.3387 21.1289 17.1629 21.3048C16.9871 21.4806 16.7486 21.5793 16.5 21.5793C16.2514 21.5793 16.0129 21.4806 15.8371 21.3048C15.6613 21.1289 15.5625 20.8905 15.5625 20.6418V19.4531L14.5331 20.0475C14.4265 20.11 14.3085 20.1508 14.186 20.1676C14.0635 20.1843 13.9389 20.1767 13.8194 20.1451C13.6998 20.1135 13.5877 20.0585 13.4895 19.9834C13.3913 19.9083 13.3089 19.8145 13.2471 19.7075C13.1853 19.6004 13.1452 19.4821 13.1293 19.3595C13.1134 19.2369 13.1218 19.1124 13.1542 18.9931C13.1866 18.8738 13.2423 18.762 13.3181 18.6643C13.3938 18.5666 13.4881 18.4848 13.5956 18.4237L14.625 17.8293L13.5956 17.235C13.3821 17.1098 13.2267 16.9052 13.1634 16.6658C13.1001 16.4265 13.1341 16.1718 13.2579 15.9574C13.3817 15.7431 13.5852 15.5863 13.8241 15.5215C14.063 15.4566 14.3179 15.4889 14.5331 15.6112L15.5625 16.2056V15.0168C15.5625 14.7682 15.6613 14.5297 15.8371 14.3539C16.0129 14.1781 16.2514 14.0793 16.5 14.0793C16.7486 14.0793 16.9871 14.1781 17.1629 14.3539C17.3387 14.5297 17.4375 14.7682 17.4375 15.0168ZM13.6875 23.4543H23.0625C23.3111 23.4543 23.5496 23.5531 23.7254 23.7289C23.9012 23.9047 24 24.1432 24 24.3918C24 24.6405 23.9012 24.8789 23.7254 25.0548C23.5496 25.2306 23.3111 25.3293 23.0625 25.3293H13.6875C13.4389 25.3293 13.2004 25.2306 13.0246 25.0548C12.8488 24.8789 12.75 24.6405 12.75 24.3918C12.75 24.1432 12.8488 23.9047 13.0246 23.7289C13.2004 23.5531 13.4389 23.4543 13.6875 23.4543ZM13.6875 27.2043H23.0625C23.3111 27.2043 23.5496 27.3031 23.7254 27.4789C23.9012 27.6547 24 27.8932 24 28.1418C24 28.3905 23.9012 28.6289 23.7254 28.8048C23.5496 28.9806 23.3111 29.0793 23.0625 29.0793H13.6875C13.4389 29.0793 13.2004 28.9806 13.0246 28.8048C12.8488 28.6289 12.75 28.3905 12.75 28.1418C12.75 27.8932 12.8488 27.6547 13.0246 27.4789C13.2004 27.3031 13.4389 27.2043 13.6875 27.2043Z" fill="#A53B1C"/>
</g>
</svg>
