<svg width="40" height="40" viewBox="0 0 40 40" fill="none" xmlns="http://www.w3.org/2000/svg">
<g id="house-check">
<rect width="40" height="40" rx="12" fill="#FFDFC8"/>
<g id="Group">
<path id="Vector" d="M20.154 5.54568C19.7737 5.16549 19.258 4.9519 18.7202 4.9519C18.1825 4.9519 17.6667 5.16549 17.2864 5.54568L3.80616 19.0239C3.71188 19.1182 3.6371 19.2301 3.58607 19.3533C3.53505 19.4765 3.50879 19.6085 3.50879 19.7418C3.50879 19.8751 3.53505 20.0072 3.58607 20.1303C3.6371 20.2535 3.71188 20.3655 3.80616 20.4597C3.99656 20.6501 4.25481 20.7571 4.52408 20.7571C4.65741 20.7571 4.78943 20.7308 4.91261 20.6798C5.03579 20.6288 5.14772 20.554 5.242 20.4597L18.7202 6.97949L32.1984 20.4597C32.3888 20.6501 32.6471 20.7571 32.9163 20.7571C33.1856 20.7571 33.4439 20.6501 33.6343 20.4597C33.8247 20.2693 33.9316 20.0111 33.9316 19.7418C33.9316 19.4725 33.8247 19.2143 33.6343 19.0239L28.8603 14.252V7.5737C28.8603 7.30477 28.7535 7.04685 28.5633 6.85669C28.3731 6.66652 28.1152 6.55969 27.8463 6.55969H25.8183C25.5493 6.55969 25.2914 6.66652 25.1013 6.85669C24.9111 7.04685 24.8043 7.30477 24.8043 7.5737V10.1959L20.154 5.54568Z" fill="#A53B1C"/>
<path id="Vector_2" d="M18.7202 9.18188L28.2762 18.7379C26.5889 18.6582 24.9126 19.0484 23.4339 19.8649C21.9551 20.6815 20.7321 21.8925 19.9009 23.363C19.0696 24.8335 18.6629 26.5059 18.7258 28.1939C18.7888 29.8819 19.319 31.5194 20.2574 32.9239H9.59409C8.7873 32.9239 8.01354 32.6034 7.44305 32.0329C6.87256 31.4624 6.55206 30.6887 6.55206 29.8819V21.35L18.7202 9.18188Z" fill="#A53B1C"/>
<path id="Vector_3" d="M27.8463 34.9519C29.7288 34.9519 31.5342 34.204 32.8654 32.8729C34.1965 31.5417 34.9444 29.7363 34.9444 27.8538C34.9444 25.9713 34.1965 24.1659 32.8654 22.8347C31.5342 21.5036 29.7288 20.7557 27.8463 20.7557C25.9638 20.7557 24.1584 21.5036 22.8272 22.8347C21.4961 24.1659 20.7482 25.9713 20.7482 27.8538C20.7482 29.7363 21.4961 31.5417 22.8272 32.8729C24.1584 34.204 25.9638 34.9519 27.8463 34.9519ZM31.2513 25.84L28.5439 30.3543C28.425 30.5527 28.2623 30.7213 28.0684 30.8473C27.8745 30.9733 27.6543 31.0535 27.4248 31.0816C27.1952 31.1098 26.9623 31.0852 26.7436 31.0098C26.525 30.9344 26.3264 30.8101 26.163 30.6464L24.5934 29.0787C24.4032 28.8883 24.2965 28.6302 24.2967 28.3611C24.2969 28.092 24.404 27.834 24.5944 27.6439C24.7848 27.4538 25.0429 27.3471 25.312 27.3472C25.5811 27.3474 25.8391 27.4545 26.0292 27.6449L27.1385 28.7542L29.5113 24.7976C29.5797 24.6833 29.67 24.5837 29.777 24.5043C29.8839 24.4249 30.0055 24.3674 30.1347 24.335C30.2639 24.3026 30.3982 24.296 30.5299 24.3155C30.6617 24.335 30.7883 24.3803 30.9025 24.4488C31.0168 24.5172 31.1164 24.6075 31.1958 24.7144C31.2752 24.8214 31.3327 24.9429 31.3651 25.0721C31.3975 25.2013 31.4041 25.3356 31.3846 25.4674C31.3651 25.5991 31.3198 25.7257 31.2513 25.84Z" fill="#A53B1C"/>
</g>
</g>
</svg>
