<svg width="41" height="40" viewBox="0 0 41 40" fill="none" xmlns="http://www.w3.org/2000/svg">
<g id="Key">
<rect x="0.5" width="40" height="40" rx="12" fill="#FFDFC8"/>
<path id="Vector" d="M13.6667 24.4543C14.8473 24.4543 15.8508 24.0412 16.6772 23.2148C17.5036 22.3884 17.9167 21.3849 17.9167 20.2043C17.9167 19.0238 17.5036 18.0203 16.6772 17.1939C15.8508 16.3675 14.8473 15.9543 13.6667 15.9543C12.4862 15.9543 11.4827 16.3675 10.6563 17.1939C9.82994 18.0203 9.41675 19.0238 9.41675 20.2043C9.41675 21.3849 9.82994 22.3884 10.6563 23.2148C11.4827 24.0412 12.4862 24.4543 13.6667 24.4543ZM13.6667 28.7043C11.3056 28.7043 9.29869 27.878 7.64591 26.2252C5.99314 24.5724 5.16675 22.5655 5.16675 20.2043C5.16675 17.8432 5.99314 15.8363 7.64591 14.1835C9.29869 12.5307 11.3056 11.7043 13.6667 11.7043C15.5792 11.7043 17.25 12.2474 18.6789 13.3335C20.1069 14.4196 21.1042 15.7655 21.6709 17.371H32.9334C33.1223 17.371 33.3055 17.4064 33.4831 17.4773C33.6597 17.5481 33.807 17.6425 33.9251 17.7606L35.3063 19.1418C35.448 19.2835 35.5542 19.4427 35.6251 19.6193C35.6959 19.7968 35.7313 19.98 35.7313 20.1689C35.7313 20.3578 35.7021 20.5349 35.6435 20.7002C35.584 20.8655 35.4834 21.0189 35.3417 21.1606L31.6584 24.8439C31.5168 24.9856 31.3633 25.0918 31.198 25.1627C31.0327 25.2335 30.8556 25.2689 30.6667 25.2689C30.4779 25.2689 30.3008 25.2392 30.1355 25.1797C29.9702 25.1211 29.8167 25.021 29.6751 24.8793L27.8334 23.0377L25.9917 24.8793C25.8501 25.021 25.6966 25.1211 25.5313 25.1797C25.3661 25.2392 25.189 25.2689 25.0001 25.2689C24.8112 25.2689 24.6341 25.2392 24.4688 25.1797C24.3036 25.1211 24.1501 25.021 24.0084 24.8793L22.1667 23.0377H21.6709C21.0806 24.7377 20.0536 26.1071 18.5897 27.146C17.1258 28.1849 15.4848 28.7043 13.6667 28.7043Z" fill="#A53B1C"/>
</g>
</svg>
