<svg width="40" height="40" viewBox="0 0 40 40" fill="none" xmlns="http://www.w3.org/2000/svg">
<rect width="40" height="40" rx="12" fill="#FFDFC8"/>
<path fill-rule="evenodd" clip-rule="evenodd" d="M19.6601 32.3921C19.7985 32.4644 19.9533 32.5012 20.1081 32.4999C20.2629 32.4987 20.4164 32.4607 20.5561 32.3872L25.016 30.0031C26.2807 29.3289 27.2711 28.5751 28.0437 27.6974C29.7237 25.7853 30.6411 23.3448 30.6248 20.8283L30.5719 12.5275C30.5669 11.5714 29.9389 10.7183 29.0102 10.4081L20.7134 7.62446C20.2138 7.4553 19.6664 7.45898 19.1756 7.63304L10.9103 10.516C9.98662 10.8384 9.37 11.6976 9.37503 12.655L9.42788 20.9496C9.44424 23.4698 10.3931 25.8993 12.1008 27.7918C12.881 28.6572 13.8802 29.4 15.1587 30.0631L19.6601 32.3921ZM18.4794 22.6362C18.6657 22.8151 18.9073 22.9034 19.1489 22.9009C19.3905 22.8997 19.6309 22.809 19.8146 22.6276L24.6885 17.8226C25.0547 17.461 25.0509 16.88 24.6809 16.5233C24.3097 16.1666 23.712 16.1691 23.3458 16.5307L19.1351 20.6811L17.411 19.0239C17.0398 18.6672 16.4433 18.6708 16.0758 19.0324C15.7096 19.394 15.7134 19.975 16.0847 20.3317L18.4794 22.6362Z" fill="#A53B1C"/>
</svg>
